<?xml version="1.0" encoding="UTF-8" standalone="no"?>
<!-- Created with Inkscape (http://www.inkscape.org/) -->

<svg
   xmlns:dc="http://purl.org/dc/elements/1.1/"
   xmlns:cc="http://creativecommons.org/ns#"
   xmlns:rdf="http://www.w3.org/1999/02/22-rdf-syntax-ns#"
   xmlns:svg="http://www.w3.org/2000/svg"
   xmlns="http://www.w3.org/2000/svg"
   version="1.1"
   width="204"
   height="68"
   id="svg2">
  <defs
     id="defs4" />
  <metadata
     id="metadata7">
    <rdf:RDF>
      <cc:Work
         rdf:about="">
        <dc:format>image/svg+xml</dc:format>
        <dc:type
           rdf:resource="http://purl.org/dc/dcmitype/StillImage" />
        <dc:title></dc:title>
      </cc:Work>
    </rdf:RDF>
  </metadata>
  <g
     transform="translate(0,-984.3622)"
     id="layer1">
    <g
       transform="matrix(0.16844895,0,0,0.18379449,-47.481132,933.00698)"
       id="g3047">
	<g
   id="g3049">
		<path
   d="m 596.1,383.8 c -8.1,0 -14.3,3.3 -18.7,9.9 -4.4,6.6 -6.6,15.8 -6.6,27.9 0,11.9 2.3,21.2 6.6,27.7 4.4,6.6 10.6,9.9 18.7,9.9 8.1,0 14.3,-3.3 18.8,-9.9 4.4,-6.6 6.6,-15.8 6.6,-27.7 0,-12 -2.3,-21.2 -6.6,-27.9 -4.6,-6.6 -10.8,-9.9 -18.8,-9.9 m 0,-21.2 c 16.4,0 29.3,5.2 38.6,15.7 9.3,10.5 14,24.9 14,43.3 0,18.4 -4.7,32.8 -14,43.1 -9.3,10.5 -22.2,15.7 -38.6,15.7 -16.4,0 -29.3,-5.2 -38.6,-15.7 -9.3,-10.5 -14,-24.9 -14,-43.1 0,-18.4 4.7,-32.8 14,-43.3 9.3,-10.5 22.1,-15.7 38.6,-15.7"
   id="path3051"
   style="fill:#472954" />

		<path
   d="m 694.8,385.8 v 31.7 h 14.6 c 5.1,0 9.1,-1.4 11.9,-4.1 2.8,-2.8 4.2,-6.6 4.2,-11.7 0,-5.1 -1.4,-9.1 -4.2,-11.7 -2.8,-2.6 -6.8,-4.1 -11.9,-4.1 l -14.6,-0.1 0,0 z m -26.3,-21.2 h 43.7 c 13,0 23.1,3.3 30,9.6 6.9,6.4 10.5,15.6 10.5,27.4 0,11.8 -3.5,21.1 -10.5,27.4 -6.9,6.4 -17,9.6 -30,9.6 h -17.4 v 39.5 H 668.4 V 364.6 h 0.1 z"
   id="path3053"
   style="fill:#472954" />

	</g>

	<polygon
   points="771.1,364.6 771.1,478.1 796.2,478.1 796.2,395.1 819.6,456.4 836.3,456.4 859.8,395.1 859.8,478.1 884.8,478.1 884.8,364.6 851.3,364.6 827.8,425.4 804.6,364.6 "
   id="polygon3055"
   style="fill:#472954" />

	<g
   id="g3057">
		<path
   d="m 400.8,328.8 c -2.1,0 -4.4,0.6 -6.2,1.7 l -69,39.9 c -3.8,2.3 -6.2,6.4 -6.2,10.7 v 79.8 c 0,4.4 2.4,8.5 6.2,10.7 l 69,39.9 c 3.8,2.1 8.6,2.1 12.4,0 l 69,-39.9 c 3.8,-2.3 6.2,-6.4 6.2,-10.7 v -79.8 c 0,-4.4 -2.4,-8.6 -6.2,-10.7 l -69,-39.9 c -2,-1.1 -4.1,-1.7 -6.2,-1.7 m 0,197.7 c -4.5,0 -9.1,-1.3 -13,-3.5 l -69,-39.9 c -8.1,-4.7 -13,-13.3 -13,-22.5 v -79.8 c 0,-9.2 4.9,-17.8 13,-22.5 l 69,-39.9 c 7.9,-4.5 18.1,-4.5 25.9,0 l 69,39.9 c 8.1,4.7 13,13.3 13,22.5 v 79.8 c 0,9.2 -4.9,17.8 -13,22.5 l -69,39.9 c -4,2.4 -8.4,3.5 -12.9,3.5"
   id="path3059"
   style="fill:#472954" />

		<path
   d="m 441.1,398.5 c -1.6,4.4 -3.4,8.8 -4.8,12.7 5.9,8.5 9.3,19.2 9.3,31.1 0,1.8 -0.1,3.7 -0.3,5.5 -0.3,3.3 2.1,6.1 5.2,6.4 0.1,0 0.4,0 0.6,0 3,0 5.5,-2.3 5.8,-5.2 0.1,-2.1 0.3,-4.4 0.3,-6.5 0,-17.4 -6.1,-32.8 -16.1,-44 m -42,-7.2 c 2.5,0 5.1,0.3 7.5,0.6 2.5,-3.3 5.4,-6.6 8.2,-10 -4.9,-1.4 -10.2,-2.3 -15.7,-2.3 -32.7,0 -58.3,27.6 -58.3,62.6 0,2.1 0.1,4.4 0.3,6.4 0.3,3.3 3.1,5.5 6.4,5.2 3.3,-0.3 5.5,-3.1 5.2,-6.4 -0.1,-1.7 -0.3,-3.5 -0.3,-5.4 0,-28.3 20.5,-50.7 46.7,-50.7 M 388,435.6 c -4,6.9 -1.3,12.7 4.2,15.8 5.5,3.3 11.9,2.7 15.8,-4.2 4,-6.9 29.4,-69 27.2,-70.3 -1.9,-1.4 -43.1,51.6 -47.2,58.7"
   id="path3061"
   style="fill:#472954" />

	</g>

</g>
    <text
       x="47.265625"
       y="51.984375"
       transform="translate(0,984.3622)"
       id="text3087"
       xml:space="preserve"
       style="font-size:40px;font-style:normal;font-weight:normal;line-height:125%;letter-spacing:0px;word-spacing:0px;fill:#472954;fill-opacity:1;stroke:none;font-family:Sans"><tspan
         x="47.265625"
         y="51.984375"
         id="tspan3089"
         style="font-size:11px;font-style:normal;font-variant:normal;font-weight:bold;font-stretch:normal;fill:#472954;fill-opacity:1;font-family:Nimbus Sans L;-inkscape-font-specification:Nimbus Sans L Bold">Open PostgreSQL Monitoring</tspan></text>
  </g>
</svg>
